<?xml version="1.0" encoding="UTF-8" standalone="no" ?>
<!DOCTYPE svg PUBLIC "-//W3C//DTD SVG 1.1//EN" "http://www.w3.org/Graphics/SVG/1.1/DTD/svg11.dtd">
<svg xmlns="http://www.w3.org/2000/svg" xmlns:xlink="http://www.w3.org/1999/xlink" version="1.1" width="660" height="145.20000000000002" viewBox="0 0 300 66" xml:space="preserve">
<desc>Created with Fabric.js 3.6.3</desc>
<defs>
</defs>
<g transform="matrix(1.21 0 0 1.21 32.01 32.59)"  >
<g style=""   >
		<g transform="matrix(0.47 0 0 0.47 0.01 -11.07)"  >
<linearGradient id="SVGID_29" gradientUnits="userSpaceOnUse" gradientTransform="matrix(1 0 0 1 0 0)"  x1="-14.647" y1="33.7483" x2="656.5567" y2="33.7483">
<stop offset="0.1502404%" style="stop-color:rgb(218,140,255);stop-opacity: 1"/>
<stop offset="100%" style="stop-color:rgb(154,85,255);stop-opacity: 1"/>
</linearGradient>
<path style="stroke: none; stroke-width: 1; stroke-dasharray: none; stroke-linecap: butt; stroke-dashoffset: 0; stroke-linejoin: miter; stroke-miterlimit: 4; fill: url(#SVGID_29); fill-rule: nonzero; opacity: 1;"  transform=" translate(-51.3, -33.72)" d="M 100.2 30 L 53.1 6.5 c -1.2 -0.6 -2.5 -0.6 -3.7 0 L 2.3 30 C 0.9 30.7 0 32.2 0 33.7 c 0 1.6 0.9 3 2.3 3.7 L 49.4 61 c 0.6 0.3 1.2 0.4 1.9 0.4 c 0.6 0 1.3 -0.1 1.9 -0.4 l 47.1 -23.5 c 1.4 -0.7 2.3 -2.1 2.3 -3.7 C 102.5 32.2 101.6 30.7 100.2 30 z M 51.2 52.7 L 13.4 33.7 l 37.8 -18.9 l 37.8 18.9 L 51.2 52.7 z" stroke-linecap="round" />
</g>
		<g transform="matrix(0.47 0 0 0.47 -0.04 16.6)"  >
<linearGradient id="SVGID_30" gradientUnits="userSpaceOnUse" gradientTransform="matrix(1 0 0 1 0 0)"  x1="-14.647" y1="92.6076" x2="656.5567" y2="92.6076">
<stop offset="0.1502404%" style="stop-color:rgb(218,140,255);stop-opacity: 1"/>
<stop offset="100%" style="stop-color:rgb(154,85,255);stop-opacity: 1"/>
</linearGradient>
<path style="stroke: none; stroke-width: 1; stroke-dasharray: none; stroke-linecap: butt; stroke-dashoffset: 0; stroke-linejoin: miter; stroke-miterlimit: 4; fill: url(#SVGID_30); fill-rule: nonzero; opacity: 1;"  transform=" translate(-51.2, -92.59)" d="M 102 79 c -1 -2 -3.5 -2.9 -5.6 -1.9 L 51.2 99.8 L 6 77.1 c -2 -1 -4.5 -0.2 -5.6 1.9 c -1 2 -0.2 4.5 1.9 5.6 l 47.1 23.5 c 0.6 0.3 1.2 0.4 1.9 0.4 c 0.6 0 1.3 -0.1 1.9 -0.4 l 47.1 -23.5 C 102.2 83.5 103 81 102 79 z" stroke-linecap="round" />
</g>
		<g transform="matrix(0.47 0 0 0.47 -0.04 5.53)"  >
<linearGradient id="SVGID_31" gradientUnits="userSpaceOnUse" gradientTransform="matrix(1 0 0 1 0 0)"  x1="-14.647" y1="69.0637" x2="656.5567" y2="69.0637">
<stop offset="0.1502404%" style="stop-color:rgb(218,140,255);stop-opacity: 1"/>
<stop offset="100%" style="stop-color:rgb(154,85,255);stop-opacity: 1"/>
</linearGradient>
<path style="stroke: none; stroke-width: 1; stroke-dasharray: none; stroke-linecap: butt; stroke-dashoffset: 0; stroke-linejoin: miter; stroke-miterlimit: 4; fill: url(#SVGID_31); fill-rule: nonzero; opacity: 1;"  transform=" translate(-51.2, -69.04)" d="M 102 55.4 c -1 -2 -3.5 -2.9 -5.6 -1.9 L 51.2 76.2 L 6 53.6 c -2 -1 -4.5 -0.2 -5.6 1.9 c -1 2 -0.2 4.5 1.9 5.6 l 47.1 23.5 c 0.6 0.3 1.2 0.4 1.9 0.4 c 0.6 0 1.3 -0.1 1.9 -0.4 L 100.2 61 C 102.2 60 103 57.5 102 55.4 z" stroke-linecap="round" />
</g>
</g>
</g>
<g transform="matrix(2.69 0 0 2.69 197.41 34.32)" style=""  >
		<text xml:space="preserve" font-family="'Cormorant Garamond', serif" font-size="18" font-style="normal" font-weight="normal" style="stroke: none; stroke-width: 0; stroke-dasharray: none; stroke-linecap: butt; stroke-dashoffset: 0; stroke-linejoin: miter; stroke-miterlimit: 4; fill: rgb(255,0,243); fill-rule: nonzero; opacity: 1; white-space: pre;" ><tspan x="-45.79" y="5.34" style="font-family: 'Open Sans', sans-serif; font-size: 17px; font-weight: bold; fill: rgb(187,114,255); ">HelpDesk</tspan></text>
</g>
</svg>